# xmcd
#
# Track frame offsets: 
#        182
#        13552
#        25080
#        37217
#        51082
#        63807
#        76035
#        89025
#        101310
#        114440
#        126285
#        139227
#        152632
#        165162
#        175880
#        189500
#        200720
#        213365
#        225087
#        237627
#        250737
#        260805
#
# Disc length: 3700 seconds
#
# Revision: 3
# Processed by: cddbd v1.5.2PL0 Copyright (c) Steve Scherf et al.
# Submitted via: ExactAudioCopy v0.99pb4
#
DISCID=230e7216
DTITLE=Various Artist - Rhythm And Blues - 1966
DYEAR=1990
DGENRE=R&B
TTITLE0=Four Tops - Reach Out I'll Be There
TTITLE1=Temptations - Ain't Too Proud To Beg
TTITLE2=Capitols - Cool Jerk
TTITLE3=Eddie Floyd - Knock On Wood
TTITLE4=Carla Thomas - B-A-B-Y
TTITLE5=Bobby Hebb - Sunny
TTITLE6=Isley Brothers - This Old Heart Of Mine (Is Weak For You)
TTITLE7=Junior Walker And The All Stars - (I'm A) Road Runner
TTITLE8=Wilson Pickett - 634-5789 (Soulsville U.S.A.)
TTITLE9=Darrell Banks - Open The Door To Your Heart
TTITLE10=Percy Sledge - When A Man Loves A Woman
TTITLE11=Jimmy Ruffin - What Becomes Of The Brokenhearted
TTITLE12=Supremes - You Can't Hurry Love
TTITLE13=Temptations - Beauty Is Only Skin Deep
TTITLE14=James And Bobby Purify - I'm Your Puppet
TTITLE15=Sam And Dave - Hold On I'm Comin'
TTITLE16=Lee Dorsey - Working In The Coal Mine
TTITLE17=Robert Parker - Barefootin'
TTITLE18=Miracles - Going To A Go-Go
TTITLE19=Slim Harpo - Baby Scratch My Back
TTITLE20=Lou Rawls - Love Is A Hurtin' Thing
TTITLE21=Otis Redding - Try A Little Tenderness
EXTD=Time-Life Music RHD-01
EXTT0=
EXTT1=
EXTT2=
EXTT3=
EXTT4=
EXTT5=
EXTT6=
EXTT7=
EXTT8=
EXTT9=
EXTT10=
EXTT11=
EXTT12=
EXTT13=
EXTT14=
EXTT15=
EXTT16=
EXTT17=
EXTT18=
EXTT19=
EXTT20=
EXTT21=
PLAYORDER=
